<svg xmlns="http://www.w3.org/2000/svg" version="1.1" height="481px" width="831px" viewBox="-10 -10 851 501" content="&lt;mxGraphModel dx=&quot;1119&quot; dy=&quot;707&quot; grid=&quot;1&quot; gridSize=&quot;10&quot; guides=&quot;1&quot; tooltips=&quot;1&quot; connect=&quot;1&quot; arrows=&quot;1&quot; fold=&quot;1&quot; page=&quot;0&quot; pageScale=&quot;1&quot; pageWidth=&quot;827&quot; pageHeight=&quot;1169&quot; math=&quot;0&quot; shadow=&quot;0&quot;&gt;&lt;root&gt;&lt;mxCell id=&quot;0&quot;/&gt;&lt;mxCell id=&quot;1&quot; parent=&quot;0&quot;/&gt;&lt;mxCell id=&quot;2&quot; value=&quot;workflow&quot; style=&quot;swimlane;&quot; parent=&quot;1&quot; vertex=&quot;1&quot;&gt;&lt;mxGeometry x=&quot;80&quot; y=&quot;40&quot; width=&quot;830&quot; height=&quot;480&quot; as=&quot;geometry&quot;/&gt;&lt;/mxCell&gt;&lt;mxCell id=&quot;5&quot; value=&quot;job&quot; style=&quot;swimlane;&quot; parent=&quot;2&quot; vertex=&quot;1&quot;&gt;&lt;mxGeometry x=&quot;40&quot; y=&quot;50&quot; width=&quot;380&quot; height=&quot;390&quot; as=&quot;geometry&quot;/&gt;&lt;/mxCell&gt;&lt;mxCell id=&quot;14&quot; value=&quot;step&quot; style=&quot;swimlane;&quot; vertex=&quot;1&quot; parent=&quot;5&quot;&gt;&lt;mxGeometry x=&quot;30&quot; y=&quot;50&quot; width=&quot;140&quot; height=&quot;130&quot; as=&quot;geometry&quot;/&gt;&lt;/mxCell&gt;&lt;mxCell id=&quot;15&quot; value=&quot;&quot; style=&quot;rounded=1;whiteSpace=wrap;html=1;&quot; vertex=&quot;1&quot; parent=&quot;14&quot;&gt;&lt;mxGeometry x=&quot;10&quot; y=&quot;35&quot; width=&quot;50&quot; height=&quot;35&quot; as=&quot;geometry&quot;/&gt;&lt;/mxCell&gt;&lt;/root&gt;&lt;/mxGraphModel&gt;"><style type="text/css"></style><path d="M -1.49 25.05 L 1.33 1.94 L 828.57 -1.4 L 828.72 22.13" fill="#ffffff" stroke="none" pointer-events="none"/><path d="M 0.5 23.5 M 0.5 23.5 C 1.12 15.78 2.47 8.95 0.5 0.5 M 0.5 23.5 C 1.59 17.67 1.58 13.29 0.5 0.5 M 0.5 0.5 C 181.37 -1.76 362.26 -1.22 830.5 0.5 M 0.5 0.5 C 292.38 -0.39 583.43 -0.5 830.5 0.5 M 830.5 0.5 C 830.99 8.68 830.75 16.73 830.5 23.5 M 830.5 0.5 C 830.56 9.26 829.79 16.48 830.5 23.5" fill="none" stroke="#000000" stroke-linejoin="round" stroke-linecap="round" stroke-miterlimit="10" pointer-events="none"/><path d="M 0.5 23.5 M 0.5 23.5 C 2.85 114.16 1.27 205.79 0.5 480.5 M 0.5 23.5 C 0.29 129.43 0.11 235.55 0.5 480.5 M 0.5 480.5 C 204.45 482.64 408.36 482.63 830.5 480.5 M 0.5 480.5 C 330.87 478.6 660.52 478.71 830.5 480.5 M 830.5 480.5 C 829.69 352.12 829.77 221.78 830.5 23.5 M 830.5 480.5 C 830.07 337.32 830.5 193.93 830.5 23.5" fill="none" stroke="#000000" stroke-linejoin="round" stroke-linecap="round" stroke-miterlimit="10" pointer-events="none"/><path d="M 0.5 23.5 M 0.5 23.5 C 167.38 21.35 332.34 21.41 830.5 23.5 M 0.5 23.5 C 192.6 24.08 384.59 24.35 830.5 23.5" fill="none" stroke="#000000" stroke-linejoin="round" stroke-linecap="round" stroke-miterlimit="10" pointer-events="none"/><g fill="#000000" font-family="Helvetica" font-weight="bold" pointer-events="none" text-anchor="middle" font-size="12px"><text x="415.5" y="17">workflow</text></g><path d="M 38.51 72.07 L 40.55 48.51 L 419.47 49.64 L 420.21 72.45" fill="#ffffff" stroke="none" pointer-events="none"/><path d="M 40.5 73.5 M 40.5 73.5 C 42.45 65.48 39.1 59.19 40.5 50.5 M 40.5 73.5 C 40.78 67.88 40.77 63.5 40.5 50.5 M 40.5 50.5 C 142.62 49.56 244.83 50.94 420.5 50.5 M 40.5 50.5 C 162.34 52.13 283.25 51.48 420.5 50.5 M 420.5 50.5 C 421.97 56.03 419.06 62.68 420.5 73.5 M 420.5 50.5 C 420.64 57.97 420.57 67.28 420.5 73.5" fill="none" stroke="#000000" stroke-linejoin="round" stroke-linecap="round" stroke-miterlimit="10" pointer-events="none"/><path d="M 40.5 73.5 M 40.5 73.5 C 37.63 146.4 38.34 220.39 40.5 440.5 M 40.5 73.5 C 40.94 164.91 41.15 254.69 40.5 440.5 M 40.5 440.5 C 173.18 441 306.82 440.99 420.5 440.5 M 40.5 440.5 C 163.58 439.73 286.19 439.5 420.5 440.5 M 420.5 440.5 C 419.3 306.39 420.61 170.37 420.5 73.5 M 420.5 440.5 C 420.07 354.22 420.06 266.56 420.5 73.5" fill="none" stroke="#000000" stroke-linejoin="round" stroke-linecap="round" stroke-miterlimit="10" pointer-events="none"/><path d="M 40.5 73.5 M 40.5 73.5 C 115.45 72.83 192.27 73.27 420.5 73.5 M 40.5 73.5 C 134.23 74.82 228.48 73.81 420.5 73.5" fill="none" stroke="#000000" stroke-linejoin="round" stroke-linecap="round" stroke-miterlimit="10" pointer-events="none"/><g fill="#000000" font-family="Helvetica" font-weight="bold" pointer-events="none" text-anchor="middle" font-size="12px"><text x="230.5" y="67">job</text></g><path d="M 68.73 122.71 L 70.75 101.09 L 209.06 100.88 L 209.65 123.27" fill="#ffffff" stroke="none" pointer-events="none"/><path d="M 70.5 123.5 M 70.5 123.5 C 69.69 117.16 70.64 108.05 70.5 100.5 M 70.5 123.5 C 70.32 115.26 70.06 104.4 70.5 100.5 M 70.5 100.5 C 115.65 100.15 159.36 100.73 210.5 100.5 M 70.5 100.5 C 108.67 102.07 146.1 102.12 210.5 100.5 M 210.5 100.5 C 208.69 107.87 210.64 116.04 210.5 123.5 M 210.5 100.5 C 210.26 109.27 211.25 117.88 210.5 123.5" fill="none" stroke="#000000" stroke-linejoin="round" stroke-linecap="round" stroke-miterlimit="10" pointer-events="none"/><path d="M 70.5 123.5 M 70.5 123.5 C 70.67 144.67 70.46 167.89 70.5 230.5 M 70.5 123.5 C 70.85 153.98 72.14 185.31 70.5 230.5 M 70.5 230.5 C 119.18 230.42 172.46 229.91 210.5 230.5 M 70.5 230.5 C 100.87 231.08 130.35 230.82 210.5 230.5 M 210.5 230.5 C 209.69 193.77 212.38 155.57 210.5 123.5 M 210.5 230.5 C 209.56 188.79 209.14 148.87 210.5 123.5" fill="none" stroke="#000000" stroke-linejoin="round" stroke-linecap="round" stroke-miterlimit="10" pointer-events="none"/><path d="M 70.5 123.5 M 70.5 123.5 C 100.68 121.88 130.07 122.47 210.5 123.5 M 70.5 123.5 C 110.56 122.7 152.22 123.17 210.5 123.5" fill="none" stroke="#000000" stroke-linejoin="round" stroke-linecap="round" stroke-miterlimit="10" pointer-events="none"/><g fill="#000000" font-family="Helvetica" font-weight="bold" pointer-events="none" text-anchor="middle" font-size="12px"><text x="140.5" y="117">step</text></g><path d="M 83.98 135.05 L 123.91 134.95 L 130.71 134.88 L 128.81 141.96 L 131.99 167.07 L 130.97 168.87 L 124.76 169.57 L 87.61 170.96 L 80.08 167.39 L 82.16 165.49 L 80.32 142.52 L 82.48 137.73 L 85.32 135.97" fill="#ffffff" stroke="none" pointer-events="none"/><path d="M 85.75 135.5 M 85.75 135.5 C 98.14 135.33 110.41 137.38 125.25 135.5 M 85.75 135.5 C 95.5 135.24 104.29 135.13 125.25 135.5 M 125.25 135.5 C 128.1 133.87 131.74 137.72 130.5 140.75 M 125.25 135.5 C 128.71 134.22 130.02 135.81 130.5 140.75 M 130.5 140.75 C 129.72 145.62 130.01 155.75 130.5 165.25 M 130.5 140.75 C 130.67 150.15 129.79 159.95 130.5 165.25 M 130.5 165.25 C 130.65 170.02 129.47 170.48 125.25 170.5 M 130.5 165.25 C 130.22 169.41 127.38 169.02 125.25 170.5 M 125.25 170.5 C 116.56 170.55 104.37 171.62 85.75 170.5 M 125.25 170.5 C 116.65 171.23 106.88 170.3 85.75 170.5 M 85.75 170.5 C 83.93 168.62 81.29 170.11 80.5 165.25 M 85.75 170.5 C 80.43 169.31 80.94 167.99 80.5 165.25 M 80.5 165.25 C 82.41 159.46 82.1 152.89 80.5 140.75 M 80.5 165.25 C 79.75 157.55 79.88 149.9 80.5 140.75 M 80.5 140.75 C 79.61 135.38 82.1 135.87 85.75 135.5 M 80.5 140.75 C 78.75 135.48 84.5 137.48 85.75 135.5" fill="none" stroke="#000000" stroke-linejoin="round" stroke-linecap="round" stroke-miterlimit="10" pointer-events="none"/></svg>