<svg xmlns="http://www.w3.org/2000/svg" version="1.1" height="201px" width="201px" viewBox="-10 -10 221 221" content="&lt;mxGraphModel dx=&quot;1119&quot; dy=&quot;284&quot; grid=&quot;1&quot; gridSize=&quot;10&quot; guides=&quot;1&quot; tooltips=&quot;1&quot; connect=&quot;1&quot; arrows=&quot;1&quot; fold=&quot;1&quot; page=&quot;0&quot; pageScale=&quot;1&quot; pageWidth=&quot;827&quot; pageHeight=&quot;1169&quot; math=&quot;0&quot; shadow=&quot;0&quot;&gt;&lt;root&gt;&lt;mxCell id=&quot;0&quot;/&gt;&lt;mxCell id=&quot;1&quot; parent=&quot;0&quot;/&gt;&lt;mxCell id=&quot;2&quot; value=&quot;Vertical Container&quot; style=&quot;swimlane;&quot; vertex=&quot;1&quot; parent=&quot;1&quot;&gt;&lt;mxGeometry x=&quot;80&quot; y=&quot;40&quot; width=&quot;200&quot; height=&quot;200&quot; as=&quot;geometry&quot;/&gt;&lt;/mxCell&gt;&lt;/root&gt;&lt;/mxGraphModel&gt;"><style type="text/css"></style><path d="M -1.49 25.05 L 1.33 1.94 L 198.57 -1.4 L 198.72 22.13" fill="#ffffff" stroke="none" pointer-events="none"/><path d="M 0.5 23.5 M 0.5 23.5 C 1.12 15.78 2.47 8.95 0.5 0.5 M 0.5 23.5 C 1.59 17.67 1.58 13.29 0.5 0.5 M 0.5 0.5 C 44.46 -1.89 88.48 -0.67 200.5 0.5 M 0.5 0.5 C 71.47 0.29 140.56 0.05 200.5 0.5 M 200.5 0.5 C 200.99 8.68 200.75 16.73 200.5 23.5 M 200.5 0.5 C 200.56 9.26 199.79 16.48 200.5 23.5" fill="none" stroke="#000000" stroke-linejoin="round" stroke-linecap="round" stroke-miterlimit="10" pointer-events="none"/><path d="M 0.5 23.5 M 0.5 23.5 C 3.31 57.04 -0.03 92.65 0.5 200.5 M 0.5 23.5 C 0.26 64.77 -0.12 106.42 0.5 200.5 M 0.5 200.5 C 49.5 203.02 98.4 203.01 200.5 200.5 M 0.5 200.5 C 80.49 199.63 158.86 199.87 200.5 200.5 M 200.5 200.5 C 200.23 152.07 200.39 99.48 200.5 23.5 M 200.5 200.5 C 199.91 145.31 200.81 89.68 200.5 23.5" fill="none" stroke="#000000" stroke-linejoin="round" stroke-linecap="round" stroke-miterlimit="10" pointer-events="none"/><path d="M 0.5 23.5 M 0.5 23.5 C 41.87 21.02 78.94 21.15 200.5 23.5 M 0.5 23.5 C 46.7 24.02 92.66 24.63 200.5 23.5" fill="none" stroke="#000000" stroke-linejoin="round" stroke-linecap="round" stroke-miterlimit="10" pointer-events="none"/><g fill="#000000" font-family="Helvetica" font-weight="bold" pointer-events="none" text-anchor="middle" font-size="12px"><text x="100.5" y="17">Vertical Container</text></g></svg>