<svg xmlns="http://www.w3.org/2000/svg" version="1.1" height="1044px" width="233px" viewBox="-10 -10 253 1064" content="&lt;mxGraphModel dx=&quot;687&quot; dy=&quot;853&quot; grid=&quot;1&quot; gridSize=&quot;10&quot; guides=&quot;1&quot; tooltips=&quot;1&quot; connect=&quot;1&quot; arrows=&quot;1&quot; fold=&quot;1&quot; page=&quot;0&quot; pageScale=&quot;1&quot; pageWidth=&quot;827&quot; pageHeight=&quot;1169&quot; math=&quot;0&quot; shadow=&quot;0&quot;&gt;&lt;root&gt;&lt;mxCell id=&quot;0&quot;/&gt;&lt;mxCell id=&quot;1&quot; parent=&quot;0&quot;/&gt;&lt;mxCell id=&quot;2&quot; value=&quot;学习的阶段&quot; style=&quot;swimlane;shadow=1;&quot; vertex=&quot;1&quot; parent=&quot;1&quot;&gt;&lt;mxGeometry x=&quot;10&quot; y=&quot;60&quot; width=&quot;230&quot; height=&quot;1040&quot; as=&quot;geometry&quot;/&gt;&lt;/mxCell&gt;&lt;mxCell id=&quot;3&quot; value=&quot;获取&quot; style=&quot;swimlane;childLayout=stackLayout;horizontal=1;startSize=30;horizontalStack=0;rounded=1;fontSize=14;fontStyle=0;strokeWidth=2;resizeParent=0;resizeLast=1;shadow=1;dashed=0;align=center;&quot; vertex=&quot;1&quot; parent=&quot;2&quot;&gt;&lt;mxGeometry x=&quot;30&quot; y=&quot;40&quot; width=&quot;160&quot; height=&quot;120&quot; as=&quot;geometry&quot;/&gt;&lt;/mxCell&gt;&lt;mxCell id=&quot;4&quot; value=&quot;+快速阅读&amp;#10;+笔记流&quot; style=&quot;align=left;strokeColor=none;fillColor=none;spacingLeft=4;fontSize=12;verticalAlign=top;resizable=0;rotatable=0;part=1;&quot; vertex=&quot;1&quot; parent=&quot;3&quot;&gt;&lt;mxGeometry y=&quot;30&quot; width=&quot;160&quot; height=&quot;90&quot; as=&quot;geometry&quot;/&gt;&lt;/mxCell&gt;&lt;mxCell id=&quot;10&quot; value=&quot;理解&quot; style=&quot;swimlane;childLayout=stackLayout;horizontal=1;startSize=30;horizontalStack=0;rounded=1;fontSize=14;fontStyle=0;strokeWidth=2;resizeParent=0;resizeLast=1;shadow=1;dashed=0;align=center;&quot; vertex=&quot;1&quot; parent=&quot;2&quot;&gt;&lt;mxGeometry x=&quot;30&quot; y=&quot;180&quot; width=&quot;160&quot; height=&quot;120&quot; as=&quot;geometry&quot;/&gt;&lt;/mxCell&gt;&lt;mxCell id=&quot;11&quot; value=&quot;+Attribute1&amp;#10;+Attribute2&amp;#10;+Attribute3&quot; style=&quot;align=left;strokeColor=none;fillColor=none;spacingLeft=4;fontSize=12;verticalAlign=top;resizable=0;rotatable=0;part=1;&quot; vertex=&quot;1&quot; parent=&quot;10&quot;&gt;&lt;mxGeometry y=&quot;30&quot; width=&quot;160&quot; height=&quot;90&quot; as=&quot;geometry&quot;/&gt;&lt;/mxCell&gt;&lt;mxCell id=&quot;12&quot; value=&quot;纠错&quot; style=&quot;swimlane;childLayout=stackLayout;horizontal=1;startSize=30;horizontalStack=0;rounded=1;fontSize=14;fontStyle=0;strokeWidth=2;resizeParent=0;resizeLast=1;shadow=1;dashed=0;align=center;&quot; vertex=&quot;1&quot; parent=&quot;2&quot;&gt;&lt;mxGeometry x=&quot;35&quot; y=&quot;460&quot; width=&quot;160&quot; height=&quot;120&quot; as=&quot;geometry&quot;/&gt;&lt;/mxCell&gt;&lt;mxCell id=&quot;13&quot; value=&quot;+Attribute1&amp;#10;+Attribute2&amp;#10;+Attribute3&quot; style=&quot;align=left;strokeColor=none;fillColor=none;spacingLeft=4;fontSize=12;verticalAlign=top;resizable=0;rotatable=0;part=1;&quot; vertex=&quot;1&quot; parent=&quot;12&quot;&gt;&lt;mxGeometry y=&quot;30&quot; width=&quot;160&quot; height=&quot;90&quot; as=&quot;geometry&quot;/&gt;&lt;/mxCell&gt;&lt;mxCell id=&quot;14&quot; value=&quot;应用&quot; style=&quot;swimlane;childLayout=stackLayout;horizontal=1;startSize=30;horizontalStack=0;rounded=1;fontSize=14;fontStyle=0;strokeWidth=2;resizeParent=0;resizeLast=1;shadow=1;dashed=0;align=center;&quot; vertex=&quot;1&quot; parent=&quot;2&quot;&gt;&lt;mxGeometry x=&quot;30&quot; y=&quot;620&quot; width=&quot;160&quot; height=&quot;120&quot; as=&quot;geometry&quot;/&gt;&lt;/mxCell&gt;&lt;mxCell id=&quot;15&quot; value=&quot;+Attribute1&amp;#10;+Attribute2&amp;#10;+Attribute3&quot; style=&quot;align=left;strokeColor=none;fillColor=none;spacingLeft=4;fontSize=12;verticalAlign=top;resizable=0;rotatable=0;part=1;shadow=1;&quot; vertex=&quot;1&quot; parent=&quot;14&quot;&gt;&lt;mxGeometry y=&quot;30&quot; width=&quot;160&quot; height=&quot;90&quot; as=&quot;geometry&quot;/&gt;&lt;/mxCell&gt;&lt;mxCell id=&quot;16&quot; value=&quot;测试&quot; style=&quot;swimlane;childLayout=stackLayout;horizontal=1;startSize=30;horizontalStack=0;rounded=1;fontSize=14;fontStyle=0;strokeWidth=2;resizeParent=0;resizeLast=1;shadow=1;dashed=0;align=center;&quot; vertex=&quot;1&quot; parent=&quot;2&quot;&gt;&lt;mxGeometry x=&quot;35&quot; y=&quot;780&quot; width=&quot;160&quot; height=&quot;120&quot; as=&quot;geometry&quot;/&gt;&lt;/mxCell&gt;&lt;mxCell id=&quot;17&quot; value=&quot;+Attribute1&amp;#10;+Attribute2&amp;#10;+Attribute3&quot; style=&quot;align=left;strokeColor=none;fillColor=none;spacingLeft=4;fontSize=12;verticalAlign=top;resizable=0;rotatable=0;part=1;shadow=0;&quot; vertex=&quot;1&quot; parent=&quot;16&quot;&gt;&lt;mxGeometry y=&quot;30&quot; width=&quot;160&quot; height=&quot;90&quot; as=&quot;geometry&quot;/&gt;&lt;/mxCell&gt;&lt;mxCell id=&quot;8&quot; value=&quot;拓展&quot; style=&quot;swimlane;childLayout=stackLayout;horizontal=1;startSize=30;horizontalStack=0;rounded=1;fontSize=14;fontStyle=0;strokeWidth=2;resizeParent=0;resizeLast=1;shadow=1;dashed=0;align=center;&quot; vertex=&quot;1&quot; parent=&quot;2&quot;&gt;&lt;mxGeometry x=&quot;35&quot; y=&quot;310&quot; width=&quot;160&quot; height=&quot;120&quot; as=&quot;geometry&quot;/&gt;&lt;/mxCell&gt;&lt;UserObject label=&quot;拓展&quot; link=&quot;obsidian://open?vault=AAAAAobsidian&amp;amp;file=%E7%AC%94%E8%AE%B0%2F%E5%AD%A6%E4%B9%A0%E6%96%B9%E6%B3%95%2F%E6%A6%82%E5%BF%B5%2F%E6%8B%93%E5%B1%95&quot; id=&quot;18&quot;&gt;&lt;mxCell style=&quot;fontColor=#0000EE;fontStyle=4;rounded=1;overflow=hidden;spacing=10;&quot; vertex=&quot;1&quot; parent=&quot;8&quot;&gt;&lt;mxGeometry y=&quot;30&quot; width=&quot;160&quot; height=&quot;30&quot; as=&quot;geometry&quot;/&gt;&lt;/mxCell&gt;&lt;/UserObject&gt;&lt;mxCell id=&quot;9&quot; value=&quot;+深度拓展&amp;#10;+横向拓展&amp;#10;+纵向拓展&quot; style=&quot;align=left;strokeColor=none;fillColor=none;spacingLeft=4;fontSize=12;verticalAlign=top;resizable=0;rotatable=0;part=1;&quot; vertex=&quot;1&quot; parent=&quot;8&quot;&gt;&lt;mxGeometry y=&quot;60&quot; width=&quot;160&quot; height=&quot;60&quot; as=&quot;geometry&quot;/&gt;&lt;/mxCell&gt;&lt;/root&gt;&lt;/mxGraphModel&gt;"><style type="text/css"></style><path d="M 0.5 23.5 L 0.5 0.5 L 230.5 0.5 L 230.5 23.5" fill="#000000" stroke="#000000" stroke-miterlimit="10" pointer-events="none" transform="translate(2,3)" opacity="0.25"/><path d="M 0.5 23.5 L 0.5 0.5 L 230.5 0.5 L 230.5 23.5" fill="#ffffff" stroke="#000000" stroke-miterlimit="10" pointer-events="none"/><path d="M 0.5 23.5 L 0.5 1040.5 L 230.5 1040.5 L 230.5 23.5" fill="none" stroke="#000000" stroke-miterlimit="10" pointer-events="none" transform="translate(2,3)" opacity="0.25"/><path d="M 0.5 23.5 L 0.5 1040.5 L 230.5 1040.5 L 230.5 23.5" fill="none" stroke="#000000" stroke-miterlimit="10" pointer-events="none"/><path d="M 0.5 23.5 L 230.5 23.5" fill="none" stroke="#000000" stroke-miterlimit="10" pointer-events="none" transform="translate(2,3)" opacity="0.25"/><path d="M 0.5 23.5 L 230.5 23.5" fill="none" stroke="#000000" stroke-miterlimit="10" pointer-events="none"/><g fill="#000000" font-family="Helvetica" font-weight="bold" pointer-events="none" text-anchor="middle" font-size="12px"><text x="115.5" y="17">学习的阶段</text></g><path d="M 190.5 70.5 L 190.5 54 Q 190.5 40.5 177 40.5 L 44 40.5 Q 30.5 40.5 30.5 54 L 30.5 70.5" fill="#000000" stroke="#000000" stroke-width="2" stroke-miterlimit="10" pointer-events="none" transform="translate(2,3)" opacity="0.25"/><path d="M 190.5 70.5 L 190.5 54 Q 190.5 40.5 177 40.5 L 44 40.5 Q 30.5 40.5 30.5 54 L 30.5 70.5" fill="#ffffff" stroke="#000000" stroke-width="2" stroke-miterlimit="10" pointer-events="none"/><path d="M 30.5 70.5 L 30.5 147 Q 30.5 160.5 44 160.5 L 177 160.5 Q 190.5 160.5 190.5 147 L 190.5 70.5" fill="none" stroke="#000000" stroke-width="2" stroke-miterlimit="10" pointer-events="none" transform="translate(2,3)" opacity="0.25"/><path d="M 30.5 70.5 L 30.5 147 Q 30.5 160.5 44 160.5 L 177 160.5 Q 190.5 160.5 190.5 147 L 190.5 70.5" fill="none" stroke="#000000" stroke-width="2" stroke-miterlimit="10" pointer-events="none"/><path d="M 30.5 70.5 L 190.5 70.5" fill="none" stroke="#000000" stroke-width="2" stroke-miterlimit="10" pointer-events="none" transform="translate(2,3)" opacity="0.25"/><path d="M 30.5 70.5 L 190.5 70.5" fill="none" stroke="#000000" stroke-width="2" stroke-miterlimit="10" pointer-events="none"/><g fill="#000000" font-family="Helvetica" pointer-events="none" text-anchor="middle" font-size="14px"><text x="110.5" y="61.5">获取</text></g><g fill="#000000" font-family="Helvetica" pointer-events="none" font-size="12px"><text x="36.5" y="88.5">+快速阅读</text><text x="36.5" y="102.5">+笔记流</text></g><path d="M 190.5 210.5 L 190.5 194 Q 190.5 180.5 177 180.5 L 44 180.5 Q 30.5 180.5 30.5 194 L 30.5 210.5" fill="#000000" stroke="#000000" stroke-width="2" stroke-miterlimit="10" pointer-events="none" transform="translate(2,3)" opacity="0.25"/><path d="M 190.5 210.5 L 190.5 194 Q 190.5 180.5 177 180.5 L 44 180.5 Q 30.5 180.5 30.5 194 L 30.5 210.5" fill="#ffffff" stroke="#000000" stroke-width="2" stroke-miterlimit="10" pointer-events="none"/><path d="M 30.5 210.5 L 30.5 287 Q 30.5 300.5 44 300.5 L 177 300.5 Q 190.5 300.5 190.5 287 L 190.5 210.5" fill="none" stroke="#000000" stroke-width="2" stroke-miterlimit="10" pointer-events="none" transform="translate(2,3)" opacity="0.25"/><path d="M 30.5 210.5 L 30.5 287 Q 30.5 300.5 44 300.5 L 177 300.5 Q 190.5 300.5 190.5 287 L 190.5 210.5" fill="none" stroke="#000000" stroke-width="2" stroke-miterlimit="10" pointer-events="none"/><path d="M 30.5 210.5 L 190.5 210.5" fill="none" stroke="#000000" stroke-width="2" stroke-miterlimit="10" pointer-events="none" transform="translate(2,3)" opacity="0.25"/><path d="M 30.5 210.5 L 190.5 210.5" fill="none" stroke="#000000" stroke-width="2" stroke-miterlimit="10" pointer-events="none"/><g fill="#000000" font-family="Helvetica" pointer-events="none" text-anchor="middle" font-size="14px"><text x="110.5" y="201.5">理解</text></g><g fill="#000000" font-family="Helvetica" pointer-events="none" font-size="12px"><text x="36.5" y="228.5">+Attribute1</text><text x="36.5" y="242.5">+Attribute2</text><text x="36.5" y="256.5">+Attribute3</text></g><path d="M 195.5 490.5 L 195.5 474 Q 195.5 460.5 182 460.5 L 49 460.5 Q 35.5 460.5 35.5 474 L 35.5 490.5" fill="#000000" stroke="#000000" stroke-width="2" stroke-miterlimit="10" pointer-events="none" transform="translate(2,3)" opacity="0.25"/><path d="M 195.5 490.5 L 195.5 474 Q 195.5 460.5 182 460.5 L 49 460.5 Q 35.5 460.5 35.5 474 L 35.5 490.5" fill="#ffffff" stroke="#000000" stroke-width="2" stroke-miterlimit="10" pointer-events="none"/><path d="M 35.5 490.5 L 35.5 567 Q 35.5 580.5 49 580.5 L 182 580.5 Q 195.5 580.5 195.5 567 L 195.5 490.5" fill="none" stroke="#000000" stroke-width="2" stroke-miterlimit="10" pointer-events="none" transform="translate(2,3)" opacity="0.25"/><path d="M 35.5 490.5 L 35.5 567 Q 35.5 580.5 49 580.5 L 182 580.5 Q 195.5 580.5 195.5 567 L 195.5 490.5" fill="none" stroke="#000000" stroke-width="2" stroke-miterlimit="10" pointer-events="none"/><path d="M 35.5 490.5 L 195.5 490.5" fill="none" stroke="#000000" stroke-width="2" stroke-miterlimit="10" pointer-events="none" transform="translate(2,3)" opacity="0.25"/><path d="M 35.5 490.5 L 195.5 490.5" fill="none" stroke="#000000" stroke-width="2" stroke-miterlimit="10" pointer-events="none"/><g fill="#000000" font-family="Helvetica" pointer-events="none" text-anchor="middle" font-size="14px"><text x="115.5" y="481.5">纠错</text></g><g fill="#000000" font-family="Helvetica" pointer-events="none" font-size="12px"><text x="41.5" y="508.5">+Attribute1</text><text x="41.5" y="522.5">+Attribute2</text><text x="41.5" y="536.5">+Attribute3</text></g><path d="M 190.5 650.5 L 190.5 634 Q 190.5 620.5 177 620.5 L 44 620.5 Q 30.5 620.5 30.5 634 L 30.5 650.5" fill="#000000" stroke="#000000" stroke-width="2" stroke-miterlimit="10" pointer-events="none" transform="translate(2,3)" opacity="0.25"/><path d="M 190.5 650.5 L 190.5 634 Q 190.5 620.5 177 620.5 L 44 620.5 Q 30.5 620.5 30.5 634 L 30.5 650.5" fill="#ffffff" stroke="#000000" stroke-width="2" stroke-miterlimit="10" pointer-events="none"/><path d="M 30.5 650.5 L 30.5 727 Q 30.5 740.5 44 740.5 L 177 740.5 Q 190.5 740.5 190.5 727 L 190.5 650.5" fill="none" stroke="#000000" stroke-width="2" stroke-miterlimit="10" pointer-events="none" transform="translate(2,3)" opacity="0.25"/><path d="M 30.5 650.5 L 30.5 727 Q 30.5 740.5 44 740.5 L 177 740.5 Q 190.5 740.5 190.5 727 L 190.5 650.5" fill="none" stroke="#000000" stroke-width="2" stroke-miterlimit="10" pointer-events="none"/><path d="M 30.5 650.5 L 190.5 650.5" fill="none" stroke="#000000" stroke-width="2" stroke-miterlimit="10" pointer-events="none" transform="translate(2,3)" opacity="0.25"/><path d="M 30.5 650.5 L 190.5 650.5" fill="none" stroke="#000000" stroke-width="2" stroke-miterlimit="10" pointer-events="none"/><g fill="#000000" font-family="Helvetica" pointer-events="none" text-anchor="middle" font-size="14px"><text x="110.5" y="641.5">应用</text></g><rect x="30.5" y="650.5" width="160" height="90" fill="none" stroke="none" pointer-events="none" transform="translate(2,3)" opacity="0.25"/><g fill="#000000" font-family="Helvetica" pointer-events="none" font-size="12px"><text x="36.5" y="668.5">+Attribute1</text><text x="36.5" y="682.5">+Attribute2</text><text x="36.5" y="696.5">+Attribute3</text></g><path d="M 195.5 810.5 L 195.5 794 Q 195.5 780.5 182 780.5 L 49 780.5 Q 35.5 780.5 35.5 794 L 35.5 810.5" fill="#000000" stroke="#000000" stroke-width="2" stroke-miterlimit="10" pointer-events="none" transform="translate(2,3)" opacity="0.25"/><path d="M 195.5 810.5 L 195.5 794 Q 195.5 780.5 182 780.5 L 49 780.5 Q 35.5 780.5 35.5 794 L 35.5 810.5" fill="#ffffff" stroke="#000000" stroke-width="2" stroke-miterlimit="10" pointer-events="none"/><path d="M 35.5 810.5 L 35.5 887 Q 35.5 900.5 49 900.5 L 182 900.5 Q 195.5 900.5 195.5 887 L 195.5 810.5" fill="none" stroke="#000000" stroke-width="2" stroke-miterlimit="10" pointer-events="none" transform="translate(2,3)" opacity="0.25"/><path d="M 35.5 810.5 L 35.5 887 Q 35.5 900.5 49 900.5 L 182 900.5 Q 195.5 900.5 195.5 887 L 195.5 810.5" fill="none" stroke="#000000" stroke-width="2" stroke-miterlimit="10" pointer-events="none"/><path d="M 35.5 810.5 L 195.5 810.5" fill="none" stroke="#000000" stroke-width="2" stroke-miterlimit="10" pointer-events="none" transform="translate(2,3)" opacity="0.25"/><path d="M 35.5 810.5 L 195.5 810.5" fill="none" stroke="#000000" stroke-width="2" stroke-miterlimit="10" pointer-events="none"/><g fill="#000000" font-family="Helvetica" pointer-events="none" text-anchor="middle" font-size="14px"><text x="115.5" y="801.5">测试</text></g><g fill="#000000" font-family="Helvetica" pointer-events="none" font-size="12px"><text x="41.5" y="828.5">+Attribute1</text><text x="41.5" y="842.5">+Attribute2</text><text x="41.5" y="856.5">+Attribute3</text></g><path d="M 195.5 340.5 L 195.5 324 Q 195.5 310.5 182 310.5 L 49 310.5 Q 35.5 310.5 35.5 324 L 35.5 340.5" fill="#000000" stroke="#000000" stroke-width="2" stroke-miterlimit="10" pointer-events="none" transform="translate(2,3)" opacity="0.25"/><path d="M 195.5 340.5 L 195.5 324 Q 195.5 310.5 182 310.5 L 49 310.5 Q 35.5 310.5 35.5 324 L 35.5 340.5" fill="#ffffff" stroke="#000000" stroke-width="2" stroke-miterlimit="10" pointer-events="none"/><path d="M 35.5 340.5 L 35.5 417 Q 35.5 430.5 49 430.5 L 182 430.5 Q 195.5 430.5 195.5 417 L 195.5 340.5" fill="none" stroke="#000000" stroke-width="2" stroke-miterlimit="10" pointer-events="none" transform="translate(2,3)" opacity="0.25"/><path d="M 35.5 340.5 L 35.5 417 Q 35.5 430.5 49 430.5 L 182 430.5 Q 195.5 430.5 195.5 417 L 195.5 340.5" fill="none" stroke="#000000" stroke-width="2" stroke-miterlimit="10" pointer-events="none"/><path d="M 35.5 340.5 L 195.5 340.5" fill="none" stroke="#000000" stroke-width="2" stroke-miterlimit="10" pointer-events="none" transform="translate(2,3)" opacity="0.25"/><path d="M 35.5 340.5 L 195.5 340.5" fill="none" stroke="#000000" stroke-width="2" stroke-miterlimit="10" pointer-events="none"/><g fill="#000000" font-family="Helvetica" pointer-events="none" text-anchor="middle" font-size="14px"><text x="115.5" y="331.5">拓展</text></g><a xmlns:xlink="http://www.w3.org/1999/xlink" xlink:href="obsidian://open?vault=AAAAAobsidian&amp;file=%E7%AC%94%E8%AE%B0%2F%E5%AD%A6%E4%B9%A0%E6%96%B9%E6%B3%95%2F%E6%A6%82%E5%BF%B5%2F%E6%8B%93%E5%B1%95"><rect x="35.5" y="340.5" width="160" height="30" rx="4.5" ry="4.5" fill="#ffffff" stroke="#000000"/><clipPath id="mx-clip-44-349-144-14-0"><rect x="44" y="349" width="144" height="14"/></clipPath><g fill="#0000EE" font-family="Helvetica" text-decoration="underline" clip-path="url(data:text/html,%0A%3Cscript%3E%0Aconst%20onWindowMessage%20%3D%20\(messageEvent\)%20%3D%3E%20%7B%0A%20%20const%20message%20%3D%20JSON.parse\(messageEvent.data\)%3B%0A%20%20if\(message.action%3D%3D%3D%22script%22\)%7B%0A%20%20%20%20const%20scriptElement%20%3D%20document.createElement\(%22script%22\)%3B%0A%20%20%20%20scriptElement.text%20%3D%20message.script%3B%0A%20%20%20%20document.head.appendChild\(scriptElement\)%3B%0A%20%20%7D%0A%20%20window.removeEventListener\(%22message%22%2C%20onWindowMessage\)%3B%0A%7D%0Awindow.addEventListener\(%22message%22%2ConWindowMessage\)%3B%0Awindow.parent.postMessage\(%22%7B%5C%22event%5C%22%3A%5C%22iframe%5C%22%7D%22%2C'*'\)%3B%0A%3C%2Fscript%3E#mx-clip-44-349-144-14-0)" text-anchor="middle" font-size="12px"><text x="115.5" y="361.5">拓展</text></g></a><rect x="35.5" y="370.5" width="160" height="60" fill="none" stroke="none"/><g fill="#000000" font-family="Helvetica" font-size="12px"><text x="41.5" y="388.5">+深度拓展</text><text x="41.5" y="402.5">+横向拓展</text><text x="41.5" y="416.5">+纵向拓展</text></g></svg>