<svg xmlns="http://www.w3.org/2000/svg" version="1.1" height="1044px" width="233px" viewBox="-10 -10 253 1064" content="&lt;mxGraphModel dx=&quot;669&quot; dy=&quot;853&quot; grid=&quot;1&quot; gridSize=&quot;10&quot; guides=&quot;1&quot; tooltips=&quot;1&quot; connect=&quot;1&quot; arrows=&quot;1&quot; fold=&quot;1&quot; page=&quot;0&quot; pageScale=&quot;1&quot; pageWidth=&quot;827&quot; pageHeight=&quot;1169&quot; math=&quot;0&quot; shadow=&quot;0&quot;&gt;&lt;root&gt;&lt;mxCell id=&quot;0&quot;/&gt;&lt;mxCell id=&quot;1&quot; parent=&quot;0&quot;/&gt;&lt;UserObject label=&quot;学习的阶段&quot; link=&quot;obsidian://open?vault=AAAAAobsidian&amp;amp;file=%E7%AC%94%E8%AE%B0%2F%E5%AD%A6%E4%B9%A0%E6%96%B9%E6%B3%95%2F%E6%A6%82%E5%BF%B5%2F%E7%90%86%E8%A7%A3&quot; id=&quot;2&quot;&gt;&lt;mxCell style=&quot;swimlane;shadow=1;&quot; parent=&quot;1&quot; vertex=&quot;1&quot;&gt;&lt;mxGeometry x=&quot;10&quot; y=&quot;60&quot; width=&quot;230&quot; height=&quot;1040&quot; as=&quot;geometry&quot;/&gt;&lt;/mxCell&gt;&lt;/UserObject&gt;&lt;mxCell id=&quot;3&quot; value=&quot;获取&quot; style=&quot;swimlane;childLayout=stackLayout;horizontal=1;startSize=30;horizontalStack=0;rounded=1;fontSize=14;fontStyle=0;strokeWidth=2;resizeParent=0;resizeLast=1;shadow=1;dashed=0;align=center;&quot; parent=&quot;2&quot; vertex=&quot;1&quot;&gt;&lt;mxGeometry x=&quot;30&quot; y=&quot;40&quot; width=&quot;160&quot; height=&quot;120&quot; as=&quot;geometry&quot;/&gt;&lt;/mxCell&gt;&lt;mxCell id=&quot;4&quot; value=&quot;+快速阅读&amp;#10;+笔记流&quot; style=&quot;align=left;strokeColor=none;fillColor=none;spacingLeft=4;fontSize=12;verticalAlign=top;resizable=0;rotatable=0;part=1;&quot; parent=&quot;3&quot; vertex=&quot;1&quot;&gt;&lt;mxGeometry y=&quot;30&quot; width=&quot;160&quot; height=&quot;90&quot; as=&quot;geometry&quot;/&gt;&lt;/mxCell&gt;&lt;mxCell id=&quot;10&quot; value=&quot;理解&quot; style=&quot;swimlane;childLayout=stackLayout;horizontal=1;startSize=30;horizontalStack=0;rounded=1;fontSize=14;fontStyle=0;strokeWidth=2;resizeParent=0;resizeLast=1;shadow=1;dashed=0;align=center;&quot; parent=&quot;2&quot; vertex=&quot;1&quot;&gt;&lt;mxGeometry x=&quot;30&quot; y=&quot;180&quot; width=&quot;160&quot; height=&quot;120&quot; as=&quot;geometry&quot;/&gt;&lt;/mxCell&gt;&lt;mxCell id=&quot;11&quot; value=&quot;+Attribute1&amp;#10;+Attribute2&amp;#10;+Attribute3&quot; style=&quot;align=left;strokeColor=none;fillColor=none;spacingLeft=4;fontSize=12;verticalAlign=top;resizable=0;rotatable=0;part=1;&quot; parent=&quot;10&quot; vertex=&quot;1&quot;&gt;&lt;mxGeometry y=&quot;30&quot; width=&quot;160&quot; height=&quot;90&quot; as=&quot;geometry&quot;/&gt;&lt;/mxCell&gt;&lt;mxCell id=&quot;12&quot; value=&quot;纠错&quot; style=&quot;swimlane;childLayout=stackLayout;horizontal=1;startSize=30;horizontalStack=0;rounded=1;fontSize=14;fontStyle=0;strokeWidth=2;resizeParent=0;resizeLast=1;shadow=1;dashed=0;align=center;&quot; parent=&quot;2&quot; vertex=&quot;1&quot;&gt;&lt;mxGeometry x=&quot;35&quot; y=&quot;460&quot; width=&quot;160&quot; height=&quot;120&quot; as=&quot;geometry&quot;/&gt;&lt;/mxCell&gt;&lt;mxCell id=&quot;13&quot; value=&quot;+Attribute1&amp;#10;+Attribute2&amp;#10;+Attribute3&quot; style=&quot;align=left;strokeColor=none;fillColor=none;spacingLeft=4;fontSize=12;verticalAlign=top;resizable=0;rotatable=0;part=1;&quot; parent=&quot;12&quot; vertex=&quot;1&quot;&gt;&lt;mxGeometry y=&quot;30&quot; width=&quot;160&quot; height=&quot;90&quot; as=&quot;geometry&quot;/&gt;&lt;/mxCell&gt;&lt;mxCell id=&quot;14&quot; value=&quot;应用&quot; style=&quot;swimlane;childLayout=stackLayout;horizontal=1;startSize=30;horizontalStack=0;rounded=1;fontSize=14;fontStyle=0;strokeWidth=2;resizeParent=0;resizeLast=1;shadow=1;dashed=0;align=center;&quot; parent=&quot;2&quot; vertex=&quot;1&quot;&gt;&lt;mxGeometry x=&quot;30&quot; y=&quot;620&quot; width=&quot;160&quot; height=&quot;120&quot; as=&quot;geometry&quot;/&gt;&lt;/mxCell&gt;&lt;mxCell id=&quot;15&quot; value=&quot;+Attribute1&amp;#10;+Attribute2&amp;#10;+Attribute3&quot; style=&quot;align=left;strokeColor=none;fillColor=none;spacingLeft=4;fontSize=12;verticalAlign=top;resizable=0;rotatable=0;part=1;shadow=1;&quot; parent=&quot;14&quot; vertex=&quot;1&quot;&gt;&lt;mxGeometry y=&quot;30&quot; width=&quot;160&quot; height=&quot;90&quot; as=&quot;geometry&quot;/&gt;&lt;/mxCell&gt;&lt;mxCell id=&quot;16&quot; value=&quot;测试&quot; style=&quot;swimlane;childLayout=stackLayout;horizontal=1;startSize=30;horizontalStack=0;rounded=1;fontSize=14;fontStyle=0;strokeWidth=2;resizeParent=0;resizeLast=1;shadow=1;dashed=0;align=center;&quot; parent=&quot;2&quot; vertex=&quot;1&quot;&gt;&lt;mxGeometry x=&quot;35&quot; y=&quot;780&quot; width=&quot;160&quot; height=&quot;120&quot; as=&quot;geometry&quot;/&gt;&lt;/mxCell&gt;&lt;mxCell id=&quot;17&quot; value=&quot;+Attribute1&amp;#10;+Attribute2&amp;#10;+Attribute3&quot; style=&quot;align=left;strokeColor=none;fillColor=none;spacingLeft=4;fontSize=12;verticalAlign=top;resizable=0;rotatable=0;part=1;shadow=0;&quot; parent=&quot;16&quot; vertex=&quot;1&quot;&gt;&lt;mxGeometry y=&quot;30&quot; width=&quot;160&quot; height=&quot;90&quot; as=&quot;geometry&quot;/&gt;&lt;/mxCell&gt;&lt;UserObject label=&quot;拓展&quot; link=&quot;obsidian://open?vault=AAAAAobsidian&amp;amp;file=%E7%AC%94%E8%AE%B0%2F%E5%AD%A6%E4%B9%A0%E6%96%B9%E6%B3%95%2F%E6%A6%82%E5%BF%B5%2F%E6%8B%93%E5%B1%95&quot; id=&quot;8&quot;&gt;&lt;mxCell style=&quot;swimlane;childLayout=stackLayout;horizontal=1;startSize=30;horizontalStack=0;rounded=1;fontSize=14;fontStyle=0;strokeWidth=2;resizeParent=0;resizeLast=1;shadow=1;dashed=0;align=center;arcSize=16;&quot; parent=&quot;2&quot; vertex=&quot;1&quot;&gt;&lt;mxGeometry x=&quot;30&quot; y=&quot;310&quot; width=&quot;160&quot; height=&quot;120&quot; as=&quot;geometry&quot;/&gt;&lt;/mxCell&gt;&lt;/UserObject&gt;&lt;mxCell id=&quot;9&quot; value=&quot;+深度拓展&amp;#10;+横向拓展&amp;#10;+纵向拓展&quot; style=&quot;align=left;strokeColor=none;fillColor=none;spacingLeft=4;fontSize=12;verticalAlign=top;resizable=0;rotatable=0;part=1;&quot; parent=&quot;8&quot; vertex=&quot;1&quot;&gt;&lt;mxGeometry y=&quot;30&quot; width=&quot;160&quot; height=&quot;90&quot; as=&quot;geometry&quot;/&gt;&lt;/mxCell&gt;&lt;/root&gt;&lt;/mxGraphModel&gt;"><style type="text/css"></style><a xmlns:xlink="http://www.w3.org/1999/xlink" xlink:href="obsidian://open?vault=AAAAAobsidian&amp;file=%E7%AC%94%E8%AE%B0%2F%E5%AD%A6%E4%B9%A0%E6%96%B9%E6%B3%95%2F%E6%A6%82%E5%BF%B5%2F%E7%90%86%E8%A7%A3"><path d="M 0.5 23.5 L 0.5 0.5 L 230.5 0.5 L 230.5 23.5" fill="#000000" stroke="#000000" stroke-miterlimit="10" transform="translate(2,3)" opacity="0.25"/><path d="M 0.5 23.5 L 0.5 0.5 L 230.5 0.5 L 230.5 23.5" fill="#ffffff" stroke="#000000" stroke-miterlimit="10"/><path d="M 0.5 23.5 L 0.5 1040.5 L 230.5 1040.5 L 230.5 23.5" fill="none" stroke="#000000" stroke-miterlimit="10" transform="translate(2,3)" opacity="0.25"/><path d="M 0.5 23.5 L 0.5 1040.5 L 230.5 1040.5 L 230.5 23.5" fill="none" stroke="#000000" stroke-miterlimit="10"/><path d="M 0.5 23.5 L 230.5 23.5" fill="none" stroke="#000000" stroke-miterlimit="10" transform="translate(2,3)" opacity="0.25"/><path d="M 0.5 23.5 L 230.5 23.5" fill="none" stroke="#000000" stroke-miterlimit="10"/><g fill="#000000" font-family="Helvetica" font-weight="bold" text-anchor="middle" font-size="12px"><text x="115.5" y="17">学习的阶段</text></g></a><path d="M 190.5 70.5 L 190.5 54 Q 190.5 40.5 177 40.5 L 44 40.5 Q 30.5 40.5 30.5 54 L 30.5 70.5" fill="#000000" stroke="#000000" stroke-width="2" stroke-miterlimit="10" transform="translate(2,3)" opacity="0.25"/><path d="M 190.5 70.5 L 190.5 54 Q 190.5 40.5 177 40.5 L 44 40.5 Q 30.5 40.5 30.5 54 L 30.5 70.5" fill="#ffffff" stroke="#000000" stroke-width="2" stroke-miterlimit="10"/><path d="M 30.5 70.5 L 30.5 147 Q 30.5 160.5 44 160.5 L 177 160.5 Q 190.5 160.5 190.5 147 L 190.5 70.5" fill="none" stroke="#000000" stroke-width="2" stroke-miterlimit="10" transform="translate(2,3)" opacity="0.25"/><path d="M 30.5 70.5 L 30.5 147 Q 30.5 160.5 44 160.5 L 177 160.5 Q 190.5 160.5 190.5 147 L 190.5 70.5" fill="none" stroke="#000000" stroke-width="2" stroke-miterlimit="10"/><path d="M 30.5 70.5 L 190.5 70.5" fill="none" stroke="#000000" stroke-width="2" stroke-miterlimit="10" transform="translate(2,3)" opacity="0.25"/><path d="M 30.5 70.5 L 190.5 70.5" fill="none" stroke="#000000" stroke-width="2" stroke-miterlimit="10"/><g fill="#000000" font-family="Helvetica" text-anchor="middle" font-size="14px"><text x="110.5" y="61.5">获取</text></g><rect x="30.5" y="70.5" width="160" height="90" fill="none" stroke="none"/><g fill="#000000" font-family="Helvetica" font-size="12px"><text x="36.5" y="88.5">+快速阅读</text><text x="36.5" y="102.5">+笔记流</text></g><path d="M 190.5 210.5 L 190.5 194 Q 190.5 180.5 177 180.5 L 44 180.5 Q 30.5 180.5 30.5 194 L 30.5 210.5" fill="#000000" stroke="#000000" stroke-width="2" stroke-miterlimit="10" transform="translate(2,3)" opacity="0.25"/><path d="M 190.5 210.5 L 190.5 194 Q 190.5 180.5 177 180.5 L 44 180.5 Q 30.5 180.5 30.5 194 L 30.5 210.5" fill="#ffffff" stroke="#000000" stroke-width="2" stroke-miterlimit="10"/><path d="M 30.5 210.5 L 30.5 287 Q 30.5 300.5 44 300.5 L 177 300.5 Q 190.5 300.5 190.5 287 L 190.5 210.5" fill="none" stroke="#000000" stroke-width="2" stroke-miterlimit="10" transform="translate(2,3)" opacity="0.25"/><path d="M 30.5 210.5 L 30.5 287 Q 30.5 300.5 44 300.5 L 177 300.5 Q 190.5 300.5 190.5 287 L 190.5 210.5" fill="none" stroke="#000000" stroke-width="2" stroke-miterlimit="10"/><path d="M 30.5 210.5 L 190.5 210.5" fill="none" stroke="#000000" stroke-width="2" stroke-miterlimit="10" transform="translate(2,3)" opacity="0.25"/><path d="M 30.5 210.5 L 190.5 210.5" fill="none" stroke="#000000" stroke-width="2" stroke-miterlimit="10"/><g fill="#000000" font-family="Helvetica" text-anchor="middle" font-size="14px"><text x="110.5" y="201.5">理解</text></g><rect x="30.5" y="210.5" width="160" height="90" fill="none" stroke="none"/><g fill="#000000" font-family="Helvetica" font-size="12px"><text x="36.5" y="228.5">+Attribute1</text><text x="36.5" y="242.5">+Attribute2</text><text x="36.5" y="256.5">+Attribute3</text></g><path d="M 195.5 490.5 L 195.5 474 Q 195.5 460.5 182 460.5 L 49 460.5 Q 35.5 460.5 35.5 474 L 35.5 490.5" fill="#000000" stroke="#000000" stroke-width="2" stroke-miterlimit="10" transform="translate(2,3)" opacity="0.25"/><path d="M 195.5 490.5 L 195.5 474 Q 195.5 460.5 182 460.5 L 49 460.5 Q 35.5 460.5 35.5 474 L 35.5 490.5" fill="#ffffff" stroke="#000000" stroke-width="2" stroke-miterlimit="10"/><path d="M 35.5 490.5 L 35.5 567 Q 35.5 580.5 49 580.5 L 182 580.5 Q 195.5 580.5 195.5 567 L 195.5 490.5" fill="none" stroke="#000000" stroke-width="2" stroke-miterlimit="10" transform="translate(2,3)" opacity="0.25"/><path d="M 35.5 490.5 L 35.5 567 Q 35.5 580.5 49 580.5 L 182 580.5 Q 195.5 580.5 195.5 567 L 195.5 490.5" fill="none" stroke="#000000" stroke-width="2" stroke-miterlimit="10"/><path d="M 35.5 490.5 L 195.5 490.5" fill="none" stroke="#000000" stroke-width="2" stroke-miterlimit="10" transform="translate(2,3)" opacity="0.25"/><path d="M 35.5 490.5 L 195.5 490.5" fill="none" stroke="#000000" stroke-width="2" stroke-miterlimit="10"/><g fill="#000000" font-family="Helvetica" text-anchor="middle" font-size="14px"><text x="115.5" y="481.5">纠错</text></g><rect x="35.5" y="490.5" width="160" height="90" fill="none" stroke="none"/><g fill="#000000" font-family="Helvetica" font-size="12px"><text x="41.5" y="508.5">+Attribute1</text><text x="41.5" y="522.5">+Attribute2</text><text x="41.5" y="536.5">+Attribute3</text></g><path d="M 190.5 650.5 L 190.5 634 Q 190.5 620.5 177 620.5 L 44 620.5 Q 30.5 620.5 30.5 634 L 30.5 650.5" fill="#000000" stroke="#000000" stroke-width="2" stroke-miterlimit="10" transform="translate(2,3)" opacity="0.25"/><path d="M 190.5 650.5 L 190.5 634 Q 190.5 620.5 177 620.5 L 44 620.5 Q 30.5 620.5 30.5 634 L 30.5 650.5" fill="#ffffff" stroke="#000000" stroke-width="2" stroke-miterlimit="10"/><path d="M 30.5 650.5 L 30.5 727 Q 30.5 740.5 44 740.5 L 177 740.5 Q 190.5 740.5 190.5 727 L 190.5 650.5" fill="none" stroke="#000000" stroke-width="2" stroke-miterlimit="10" transform="translate(2,3)" opacity="0.25"/><path d="M 30.5 650.5 L 30.5 727 Q 30.5 740.5 44 740.5 L 177 740.5 Q 190.5 740.5 190.5 727 L 190.5 650.5" fill="none" stroke="#000000" stroke-width="2" stroke-miterlimit="10"/><path d="M 30.5 650.5 L 190.5 650.5" fill="none" stroke="#000000" stroke-width="2" stroke-miterlimit="10" transform="translate(2,3)" opacity="0.25"/><path d="M 30.5 650.5 L 190.5 650.5" fill="none" stroke="#000000" stroke-width="2" stroke-miterlimit="10"/><g fill="#000000" font-family="Helvetica" text-anchor="middle" font-size="14px"><text x="110.5" y="641.5">应用</text></g><rect x="30.5" y="650.5" width="160" height="90" fill="none" stroke="none" transform="translate(2,3)" opacity="0.25"/><rect x="30.5" y="650.5" width="160" height="90" fill="none" stroke="none"/><g fill="#000000" font-family="Helvetica" font-size="12px"><text x="36.5" y="668.5">+Attribute1</text><text x="36.5" y="682.5">+Attribute2</text><text x="36.5" y="696.5">+Attribute3</text></g><path d="M 195.5 810.5 L 195.5 794 Q 195.5 780.5 182 780.5 L 49 780.5 Q 35.5 780.5 35.5 794 L 35.5 810.5" fill="#000000" stroke="#000000" stroke-width="2" stroke-miterlimit="10" transform="translate(2,3)" opacity="0.25"/><path d="M 195.5 810.5 L 195.5 794 Q 195.5 780.5 182 780.5 L 49 780.5 Q 35.5 780.5 35.5 794 L 35.5 810.5" fill="#ffffff" stroke="#000000" stroke-width="2" stroke-miterlimit="10"/><path d="M 35.5 810.5 L 35.5 887 Q 35.5 900.5 49 900.5 L 182 900.5 Q 195.5 900.5 195.5 887 L 195.5 810.5" fill="none" stroke="#000000" stroke-width="2" stroke-miterlimit="10" transform="translate(2,3)" opacity="0.25"/><path d="M 35.5 810.5 L 35.5 887 Q 35.5 900.5 49 900.5 L 182 900.5 Q 195.5 900.5 195.5 887 L 195.5 810.5" fill="none" stroke="#000000" stroke-width="2" stroke-miterlimit="10"/><path d="M 35.5 810.5 L 195.5 810.5" fill="none" stroke="#000000" stroke-width="2" stroke-miterlimit="10" transform="translate(2,3)" opacity="0.25"/><path d="M 35.5 810.5 L 195.5 810.5" fill="none" stroke="#000000" stroke-width="2" stroke-miterlimit="10"/><g fill="#000000" font-family="Helvetica" text-anchor="middle" font-size="14px"><text x="115.5" y="801.5">测试</text></g><rect x="35.5" y="810.5" width="160" height="90" fill="none" stroke="none"/><g fill="#000000" font-family="Helvetica" font-size="12px"><text x="41.5" y="828.5">+Attribute1</text><text x="41.5" y="842.5">+Attribute2</text><text x="41.5" y="856.5">+Attribute3</text></g><a xmlns:xlink="http://www.w3.org/1999/xlink" xlink:href="obsidian://open?vault=AAAAAobsidian&amp;file=%E7%AC%94%E8%AE%B0%2F%E5%AD%A6%E4%B9%A0%E6%96%B9%E6%B3%95%2F%E6%A6%82%E5%BF%B5%2F%E6%8B%93%E5%B1%95"><path d="M 190.5 340.5 L 190.5 324.9 Q 190.5 310.5 176.1 310.5 L 44.9 310.5 Q 30.5 310.5 30.5 324.9 L 30.5 340.5" fill="#000000" stroke="#000000" stroke-width="2" stroke-miterlimit="10" transform="translate(2,3)" opacity="0.25"/><path d="M 190.5 340.5 L 190.5 324.9 Q 190.5 310.5 176.1 310.5 L 44.9 310.5 Q 30.5 310.5 30.5 324.9 L 30.5 340.5" fill="#ffffff" stroke="#000000" stroke-width="2" stroke-miterlimit="10"/><path d="M 30.5 340.5 L 30.5 416.1 Q 30.5 430.5 44.9 430.5 L 176.1 430.5 Q 190.5 430.5 190.5 416.1 L 190.5 340.5" fill="none" stroke="#000000" stroke-width="2" stroke-miterlimit="10" transform="translate(2,3)" opacity="0.25"/><path d="M 30.5 340.5 L 30.5 416.1 Q 30.5 430.5 44.9 430.5 L 176.1 430.5 Q 190.5 430.5 190.5 416.1 L 190.5 340.5" fill="none" stroke="#000000" stroke-width="2" stroke-miterlimit="10"/><path d="M 30.5 340.5 L 190.5 340.5" fill="none" stroke="#000000" stroke-width="2" stroke-miterlimit="10" transform="translate(2,3)" opacity="0.25"/><path d="M 30.5 340.5 L 190.5 340.5" fill="none" stroke="#000000" stroke-width="2" stroke-miterlimit="10"/><g fill="#000000" font-family="Helvetica" text-anchor="middle" font-size="14px"><text x="110.5" y="331.5">拓展</text></g></a><rect x="30.5" y="340.5" width="160" height="90" fill="none" stroke="none"/><g fill="#000000" font-family="Helvetica" font-size="12px"><text x="36.5" y="358.5">+深度拓展</text><text x="36.5" y="372.5">+横向拓展</text><text x="36.5" y="386.5">+纵向拓展</text></g></svg>