<svg xmlns="http://www.w3.org/2000/svg" version="1.1" height="61px" width="121px" viewBox="-10 -10 141 81" content="&lt;mxGraphModel dx=&quot;1518&quot; dy=&quot;1200&quot; grid=&quot;1&quot; gridSize=&quot;10&quot; guides=&quot;1&quot; tooltips=&quot;1&quot; connect=&quot;1&quot; arrows=&quot;1&quot; fold=&quot;1&quot; page=&quot;0&quot; pageScale=&quot;1&quot; pageWidth=&quot;827&quot; pageHeight=&quot;1169&quot; math=&quot;0&quot; shadow=&quot;0&quot;&gt;&lt;root&gt;&lt;mxCell id=&quot;0&quot;/&gt;&lt;mxCell id=&quot;1&quot; parent=&quot;0&quot;/&gt;&lt;UserObject label=&quot;&quot; link=&quot;obsidian://open?vault=obsidianPrivateNote&amp;amp;file=%E7%AC%94%E8%AE%B0%2F%E5%89%8D%E7%AB%AF%2F%E7%BC%96%E7%A8%8B%E8%AF%AD%E8%A8%80%2FJS%2F%E5%87%BD%E6%95%B0&quot; id=&quot;4&quot;&gt;&lt;mxCell style=&quot;rounded=1;whiteSpace=wrap;html=1;&quot; vertex=&quot;1&quot; parent=&quot;1&quot;&gt;&lt;mxGeometry x=&quot;-110&quot; y=&quot;140&quot; width=&quot;120&quot; height=&quot;60&quot; as=&quot;geometry&quot;/&gt;&lt;/mxCell&gt;&lt;/UserObject&gt;&lt;/root&gt;&lt;/mxGraphModel&gt;"><style type="text/css"></style><a xmlns:xlink="http://www.w3.org/1999/xlink" xlink:href="obsidian://open?vault=obsidianPrivateNote&amp;file=%E7%AC%94%E8%AE%B0%2F%E5%89%8D%E7%AB%AF%2F%E7%BC%96%E7%A8%8B%E8%AF%AD%E8%A8%80%2FJS%2F%E5%87%BD%E6%95%B0"><rect x="0.5" y="0.5" width="120" height="60" rx="9" ry="9" fill="none" stroke="none"/><path d="M 7.51 -1.27 L 117.08 0.22 L 118.25 4.21 L 121.04 11.01 L 120.33 53.57 L 118.81 59.69 L 109.6 60.16 L 5.88 59.86 L 3.7 57.32 L -1.16 52.01 L 0.16 10.47 L 1.8 2.1 L 11.37 0.05" fill="#ffffff" stroke="none"/><path d="M 9.5 0.5 M 9.5 0.5 C 34.57 1.28 57.85 1.31 111.5 0.5 M 9.5 0.5 C 38.45 -0.81 66.07 0.14 111.5 0.5 M 111.5 0.5 C 115.58 1.03 120.04 1.97 120.5 9.5 M 111.5 0.5 C 117.52 -0.25 120.75 2.79 120.5 9.5 M 120.5 9.5 C 121.08 17.36 121.25 26 120.5 51.5 M 120.5 9.5 C 120.33 18 121.34 26.26 120.5 51.5 M 120.5 51.5 C 120.62 56.23 117.37 59.45 111.5 60.5 M 120.5 51.5 C 118.32 58.04 119.35 60.72 111.5 60.5 M 111.5 60.5 C 78.5 60.02 44.91 60.98 9.5 60.5 M 111.5 60.5 C 71.55 61.54 31.02 60.41 9.5 60.5 M 9.5 60.5 C 2.73 59.02 1.66 57.51 0.5 51.5 M 9.5 60.5 C 2.55 60.49 -0.9 55.56 0.5 51.5 M 0.5 51.5 C -0.6 35.5 -0.09 21.8 0.5 9.5 M 0.5 51.5 C -0.44 42.42 -0.61 33.49 0.5 9.5 M 0.5 9.5 C 0.01 4.14 1.99 -1.07 9.5 0.5 M 0.5 9.5 C -0.88 1.34 2.8 -0.81 9.5 0.5" fill="none" stroke="#000000" stroke-linejoin="round" stroke-linecap="round" stroke-miterlimit="10"/></a></svg>